<?xml version="1.0" standalone="no"?><!DOCTYPE svg PUBLIC "-//W3C//DTD SVG 1.1//EN" "http://www.w3.org/Graphics/SVG/1.1/DTD/svg11.dtd"><svg t="1708708897690" class="icon" viewBox="0 0 1024 1024" version="1.1" xmlns="http://www.w3.org/2000/svg" p-id="28213" width="1024" height="1024" xmlns:xlink="http://www.w3.org/1999/xlink"><path d="M626.432 934.1952H223.8464c-73.5232 0-133.12-59.5968-133.12-133.12V398.4896c0-73.5232 59.5968-133.12 133.12-133.12h402.5856c73.5232 0 133.12 59.5968 133.12 133.12v402.5856c0 73.5232-59.5968 133.12-133.12 133.12z" fill="#4BE2AC" p-id="28214"></path><path d="M806.144 754.4832H403.6096c-73.5232 0-133.12-59.5968-133.12-133.12V218.7776c0-73.5232 59.5968-133.12 133.12-133.12h402.5856c73.5232 0 133.12 59.5968 133.12 133.12v402.5856c-0.0512 73.5232-59.648 133.12-133.1712 133.12z" fill="#4BE2AC" p-id="28215"></path><path d="M623.5136 265.3696H270.4896v353.0752c0 75.1104 60.928 136.0384 136.0384 136.0384h353.0752V401.408c-0.0512-75.1104-60.928-136.0384-136.0896-136.0384z" fill="#06CC76" p-id="28216"></path></svg>