<?xml version="1.0" standalone="no"?><!DOCTYPE svg PUBLIC "-//W3C//DTD SVG 1.1//EN" "http://www.w3.org/Graphics/SVG/1.1/DTD/svg11.dtd"><svg t="1708709423523" class="icon" viewBox="0 0 1024 1024" version="1.1" xmlns="http://www.w3.org/2000/svg" p-id="6912" width="64" height="64" xmlns:xlink="http://www.w3.org/1999/xlink"><path d="M90.7264 265.3696m133.12 0l402.5856 0q133.12 0 133.12 133.12l0 402.5856q0 133.12-133.12 133.12l-402.5856 0q-133.12 0-133.12-133.12l0-402.5856q0-133.12 133.12-133.12Z" fill="#4BE2AC" p-id="6913"></path><path d="M270.4896 85.6576m133.12 0l402.5856 0q133.12 0 133.12 133.12l0 402.5856q0 133.12-133.12 133.12l-402.5856 0q-133.12 0-133.12-133.12l0-402.5856q0-133.12 133.12-133.12Z" fill="#4BE2AC" p-id="6914"></path><path d="M623.5136 265.3696H270.4896v353.28a136.0384 136.0384 0 0 0 136.0384 135.8336h353.024v-353.28a136.0384 136.0384 0 0 0-136.0384-135.8336z" fill="#06CC76" p-id="6915"></path><path d="M597.1456 432.128h-194.56a40.96 40.96 0 0 1 0-81.92h194.56a40.96 40.96 0 0 1 0 81.92z" fill="#FFFFFF" p-id="6916"></path></svg>